<?xml version="1.0" encoding="UTF-8"?><svg xmlns="http://www.w3.org/2000/svg" xmlns:xlink="http://www.w3.org/1999/xlink" fill-opacity="1" color-rendering="auto" color-interpolation="auto" text-rendering="auto" stroke="black" stroke-linecap="square" width="413" stroke-miterlimit="10" shape-rendering="auto" stroke-opacity="1" fill="black" stroke-dasharray="none" font-weight="normal" stroke-width="1" height="269" font-family="'Dialog'" font-style="normal" stroke-linejoin="miter" font-size="12px" stroke-dashoffset="0" image-rendering="auto">
  <!--Generated by ySVG 2.5-->
  <defs id="genericDefs"/>
  <g>
    <defs id="defs1">
      <clipPath clipPathUnits="userSpaceOnUse" id="clipPath1">
        <path d="M0 0 L413 0 L413 269 L0 269 L0 0 Z"/>
      </clipPath>
      <clipPath clipPathUnits="userSpaceOnUse" id="clipPath2">
        <path d="M167 38 L580 38 L580 307 L167 307 L167 38 Z"/>
      </clipPath>
    </defs>
    <g fill="white" text-rendering="geometricPrecision" shape-rendering="geometricPrecision" transform="translate(-167,-38)" stroke="white">
      <rect x="167" width="413" height="269" y="38" clip-path="url(#clipPath2)" stroke="none"/>
    </g>
    <g fill="rgb(255,204,0)" text-rendering="geometricPrecision" shape-rendering="geometricPrecision" transform="matrix(1,0,0,1,-167,-38)" stroke="rgb(255,204,0)">
      <rect x="182" width="215" height="30" y="262" clip-path="url(#clipPath2)" stroke="none"/>
    </g>
    <g text-rendering="geometricPrecision" stroke-miterlimit="1.45" shape-rendering="geometricPrecision" font-family="sans-serif" transform="matrix(1,0,0,1,-167,-38)" stroke-linecap="butt">
      <text x="277.7871" xml:space="preserve" y="281.1543" clip-path="url(#clipPath2)" stroke="none">EV3</text>
      <rect fill="none" x="182" width="215" height="30" y="262" clip-path="url(#clipPath2)"/>
    </g>
    <g fill="rgb(255,204,0)" text-rendering="geometricPrecision" shape-rendering="geometricPrecision" transform="matrix(1,0,0,1,-167,-38)" stroke="rgb(255,204,0)">
      <rect x="297" width="100" height="30" y="192.5" clip-path="url(#clipPath2)" stroke="none"/>
    </g>
    <g text-rendering="geometricPrecision" stroke-miterlimit="1.45" shape-rendering="geometricPrecision" font-family="sans-serif" transform="matrix(1,0,0,1,-167,-38)" stroke-linecap="butt">
      <text x="335.041" xml:space="preserve" y="211.6543" clip-path="url(#clipPath2)" stroke="none">HAL</text>
      <rect fill="none" x="297" width="100" height="30" y="192.5" clip-path="url(#clipPath2)"/>
    </g>
    <g fill="rgb(255,204,0)" text-rendering="geometricPrecision" shape-rendering="geometricPrecision" transform="matrix(1,0,0,1,-167,-38)" stroke="rgb(255,204,0)">
      <rect x="182" width="215" height="30" y="123" clip-path="url(#clipPath2)" stroke="none"/>
    </g>
    <g text-rendering="geometricPrecision" stroke-miterlimit="1.45" shape-rendering="geometricPrecision" font-family="sans-serif" transform="matrix(1,0,0,1,-167,-38)" stroke-linecap="butt">
      <text x="259.7314" xml:space="preserve" y="142.1543" clip-path="url(#clipPath2)" stroke="none">Behaviors</text>
      <rect fill="none" x="182" width="215" height="30" y="123" clip-path="url(#clipPath2)"/>
    </g>
    <g fill="rgb(255,204,0)" text-rendering="geometricPrecision" shape-rendering="geometricPrecision" transform="matrix(1,0,0,1,-167,-38)" stroke="rgb(255,204,0)">
      <rect x="214" width="45" height="30" y="53.5" clip-path="url(#clipPath2)" stroke="none"/>
    </g>
    <g text-rendering="geometricPrecision" stroke-miterlimit="1.45" shape-rendering="geometricPrecision" font-family="sans-serif" transform="matrix(1,0,0,1,-167,-38)" stroke-linecap="butt">
      <text x="222.1768" xml:space="preserve" y="72.6543" clip-path="url(#clipPath2)" stroke="none">Main</text>
      <rect fill="none" x="214" width="45" height="30" y="53.5" clip-path="url(#clipPath2)"/>
    </g>
    <g fill="rgb(255,204,0)" text-rendering="geometricPrecision" shape-rendering="geometricPrecision" transform="matrix(1,0,0,1,-167,-38)" stroke="rgb(255,204,0)">
      <rect x="465" width="100" height="30" y="118" clip-path="url(#clipPath2)" stroke="none"/>
    </g>
    <g text-rendering="geometricPrecision" stroke-miterlimit="1.45" shape-rendering="geometricPrecision" font-family="sans-serif" transform="matrix(1,0,0,1,-167,-38)" stroke-linecap="butt">
      <text x="477.8633" xml:space="preserve" y="137.1543" clip-path="url(#clipPath2)" stroke="none">SharedState</text>
      <rect fill="none" x="465" width="100" height="30" y="118" clip-path="url(#clipPath2)"/>
    </g>
    <g fill="rgb(255,204,0)" text-rendering="geometricPrecision" shape-rendering="geometricPrecision" transform="matrix(1,0,0,1,-167,-38)" stroke="rgb(255,204,0)">
      <rect x="465" width="100" height="30" y="192.5" clip-path="url(#clipPath2)" stroke="none"/>
    </g>
    <g text-rendering="geometricPrecision" stroke-miterlimit="1.45" shape-rendering="geometricPrecision" font-family="sans-serif" transform="matrix(1,0,0,1,-167,-38)" stroke-linecap="butt">
      <text x="483.0547" xml:space="preserve" y="211.6543" clip-path="url(#clipPath2)" stroke="none">Subscriber</text>
      <rect fill="none" x="465" width="100" height="30" y="192.5" clip-path="url(#clipPath2)"/>
    </g>
    <g fill="rgb(255,204,0)" text-rendering="geometricPrecision" shape-rendering="geometricPrecision" transform="matrix(1,0,0,1,-167,-38)" stroke="rgb(255,204,0)">
      <rect x="284" width="95" height="30" y="53.5" clip-path="url(#clipPath2)" stroke="none"/>
    </g>
    <g text-rendering="geometricPrecision" stroke-miterlimit="1.45" shape-rendering="geometricPrecision" font-family="sans-serif" transform="matrix(1,0,0,1,-167,-38)" stroke-linecap="butt">
      <text x="302.4668" xml:space="preserve" y="72.6543" clip-path="url(#clipPath2)" stroke="none">Arbitrator</text>
      <rect fill="none" x="284" width="95" height="30" y="53.5" clip-path="url(#clipPath2)"/>
      <path fill="none" d="M347 222.5 L347 254.0178" clip-path="url(#clipPath2)"/>
      <path d="M347 262.0178 L352 250.0178 L347 253.0178 L342 250.0178 Z" clip-path="url(#clipPath2)" stroke="none"/>
      <path fill="none" d="M347 152.9851 L347 184.5" clip-path="url(#clipPath2)"/>
      <path d="M347 192.5 L352 180.5 L347 183.5 L342 180.5 Z" clip-path="url(#clipPath2)" stroke="none"/>
      <path fill="none" d="M231 153.0246 L231 253.9812" clip-path="url(#clipPath2)"/>
      <path d="M231 261.9812 L236 249.9812 L231 252.9812 L226 249.9812 Z" clip-path="url(#clipPath2)" stroke="none"/>
      <path fill="none" d="M397 135.6164 L465 134.1086" clip-path="url(#clipPath2)"/>
      <text x="400.0555" xml:space="preserve" y="139.0057" clip-path="url(#clipPath2)" stroke="none">[0..*],[0,1]</text>
      <path fill="none" d="M515 148 L515 184.5" clip-path="url(#clipPath2)"/>
      <path d="M515 192.5 L520 180.5 L515 183.5 L510 180.5 Z" clip-path="url(#clipPath2)" stroke="none"/>
      <text x="486.7666" xml:space="preserve" y="174.4043" clip-path="url(#clipPath2)" stroke="none">EventBus</text>
      <path fill="none" d="M259 68.5 L276 68.5" clip-path="url(#clipPath2)"/>
      <path d="M284 68.5 L272 63.5 L275 68.5 L272 73.5 Z" clip-path="url(#clipPath2)" stroke="none"/>
      <path fill="none" d="M331.324 90.4998 L331.0642 122.9751" clip-path="url(#clipPath2)"/>
      <path fill="white" d="M331.38 83.5 L336.3239 90.5398 L331.268 97.4995 L326.3242 90.4598 Z" clip-path="url(#clipPath2)" stroke="none"/>
      <path fill="none" d="M331.38 83.5 L336.3239 90.5398 L331.268 97.4995 L326.3242 90.4598 Z" clip-path="url(#clipPath2)"/>
    </g>
  </g>
</svg>
